<?xml version="1.0" encoding="utf-8"?>
<!-- Generator: Adobe Illustrator 15.0.0, SVG Export Plug-In . SVG Version: 6.00 Build 0)  -->
<!DOCTYPE svg PUBLIC "-//W3C//DTD SVG 1.1//EN" "http://www.w3.org/Graphics/SVG/1.1/DTD/svg11.dtd">
<svg version="1.1" id="图层_1" xmlns="http://www.w3.org/2000/svg" xmlns:xlink="http://www.w3.org/1999/xlink" x="0px" y="0px"
	 width="50.634px" height="50.632px" viewBox="360.373 321.757 50.634 50.632"
	 enable-background="new 360.373 321.757 50.634 50.632" xml:space="preserve">
<g>
	<g>
		<g>
			<path fill="none" stroke="#000000" stroke-width="2" stroke-linejoin="round" stroke-miterlimit="10" d="M410.007,369.073
				c0,1.1-0.9,2-2,2H364.01c-1.1,0-2-0.9-2-2v-44c0-1.101,0.9-2,2-2h43.997c1.1,0,2,0.899,2,2V369.073z"/>
		</g>
		
			<line fill="none" stroke="#000000" stroke-width="2" stroke-linejoin="round" stroke-miterlimit="10" x1="362.983" y1="339.121" x2="409.032" y2="339.121"/>
		
			<line fill="none" stroke="#000000" stroke-width="2" stroke-linejoin="round" stroke-miterlimit="10" x1="368.327" y1="331.412" x2="372.446" y2="331.412"/>
		
			<line fill="none" stroke="#000000" stroke-width="2" stroke-linejoin="round" stroke-miterlimit="10" x1="376.859" y1="331.412" x2="380.978" y2="331.412"/>
	</g>
	<g>
		
			<polyline fill="none" stroke="#000000" stroke-width="2" stroke-linecap="round" stroke-linejoin="round" stroke-miterlimit="10" points="
			377.938,362.002 371.589,355.655 377.938,349.301 		"/>
		
			<polyline fill="none" stroke="#000000" stroke-width="2" stroke-linecap="round" stroke-linejoin="round" stroke-miterlimit="10" points="
			394.081,349.301 400.429,355.653 394.081,362 		"/>
	</g>
	
		<line fill="none" stroke="#000000" stroke-width="2" stroke-linecap="round" stroke-linejoin="round" stroke-miterlimit="10" x1="388.938" y1="348.648" x2="383.08" y2="362.653"/>
</g>
</svg>
