<?xml version="1.0" encoding="utf-8"?>
<!-- Generator: Adobe Illustrator 15.0.0, SVG Export Plug-In . SVG Version: 6.00 Build 0)  -->
<!DOCTYPE svg PUBLIC "-//W3C//DTD SVG 1.1//EN" "http://www.w3.org/Graphics/SVG/1.1/DTD/svg11.dtd">
<svg version="1.1" id="图层_1" xmlns="http://www.w3.org/2000/svg" xmlns:xlink="http://www.w3.org/1999/xlink" x="0px" y="0px"
	 width="469.367px" height="97.432px" viewBox="0 0 469.367 97.432" enable-background="new 0 0 469.367 97.432"
	 xml:space="preserve">
<g>
	<g>
		<g>
			<path fill="#424142" d="M11.737,0L0,11.486v85.946h33.28V63.353c-0.001-0.041-0.006-0.079-0.006-0.12V33.358
				c0-0.041,0.005-0.079,0.006-0.12V17.779h19.496V0H11.737z"/>
		</g>
		<g>
			<path fill="#424142" d="M55.528,60.556c-0.188,0-0.368-0.011-0.545-0.023v36.052h90.604v-40.82l-12.091-7.396l12.091-7.539
				V11.241L130.653,0h-75.67v34.203c0,0,32.621,0.009,33.281-0.001V17.785h24.326v61.02H88.265V60.49"/>
		</g>
		<g>
			<path fill="#424142" d="M173.08,57.984l-1.728-7.514h3.23l5.936-36.74H170V7.118h30.279L198.4,2.083h15.027l1.878,5.034h29.378
				v6.609h-49.141l-1.202,7.588h48.313v36.594h-21.338l-3.381-6.766h9.692V27.93h-34.412l-4.883,30.054H173.08z"/>
			<path fill="#424142" d="M249.573,57.909V19.515h-4.058v-6.688h4.058V2.083h13.073v10.744h4.058v6.688h-4.058V57.91
				L249.573,57.909L249.573,57.909z M267.08,41.455h35.162v-2.183h12.548v2.183h4.733v6.16h-4.733v10.441h-15.628l-2.932-5.335
				h6.012v-5.106H267.08V41.455z M267.305,7.193h19.986V2.234h12.547v4.959h19.911v4.887h-19.911v2.179h19.01v24.419h-12.623V35.82
				h-6.387v3.384h-12.547V35.82h-6.462v2.854h-12.622V14.255h19.084v-2.179h-19.986V7.193L267.305,7.193z M278.801,57.232
				l-4.058-7.735h12.473l2.404,4.73h2.479l-1.055,3.005H278.801z M280.829,22.521h6.462V19.89h-6.462V22.521z M280.829,30.485h6.462
				v-2.63h-6.462V30.485z M306.225,19.89h-6.387v2.631h6.387V19.89z M299.838,30.485h6.387v-2.63h-6.387V30.485z M304.271,6.066
				V2.459h12.318l-1.803,3.604L304.271,6.066L304.271,6.066z"/>
			<path fill="#424142" d="M390.529,18.388v5.71l-10.442,26.071h14.802v6.988h-74.531v-6.988h44.854l3.606-8.715h-44.256V34.69
				l11.422-24.269h-13.75V3.361h70.627v7.063h-42.525l-3.604,7.965L390.529,18.388L390.529,18.388z M375.504,25.451H343.57
				l-3.98,9.016h32.157L375.504,25.451z"/>
			<path fill="#424142" d="M419.689,52.124l-1.653,6.011h-21.339l-0.149-6.011l9.019-23.367h-9.395V21.77h36.215v6.987h-13.373
				l-8.863,23.367H419.689z M431.034,4.038v6.984h-33.511V4.038H431.034z M421.492,58.134l-3.832-16.605h11.946l4.058,16.605
				H421.492z M435.843,57.909l-1.728-5.785h2.776l2.705-38.771h-5.481V6.367h6.011l0.3-3.982h12.548l-0.301,3.982h16.604v51.542
				h-13.824l-2.78-6.688h4.06V13.354h-4.582l-3.385,44.558L435.843,57.909L435.843,57.909z"/>
		</g>
		<g>
			<path fill="#424142" d="M176.965,90.014h8.009v-1.456h1.334v2.427h-12.68v-0.971h2.225V74h-2.114V73.03h5.562V74h-2.336V90.014z"
				/>
			<path fill="#424142" d="M217.156,72.835c5.339,0.519,8.268,3.591,8.787,9.221c-0.445,5.5-3.375,8.477-8.787,8.929
				c-5.562-0.582-8.492-3.558-8.788-8.929C208.886,76.426,211.816,73.354,217.156,72.835z M217.156,73.903
				c-4.672,0.519-7.23,3.236-7.675,8.153c0.445,4.918,3.003,7.635,7.675,8.152c4.522-0.323,7.081-3.041,7.675-8.152
				C224.311,77.009,221.752,74.291,217.156,73.903z"/>
			<path fill="#424142" d="M257.012,72.835c5.34,0.519,8.268,3.591,8.788,9.221c-0.445,5.5-3.376,8.477-8.788,8.929
				c-5.562-0.582-8.491-3.558-8.787-8.929C248.742,76.426,251.673,73.354,257.012,72.835z M257.012,73.903
				c-4.672,0.519-7.229,3.236-7.675,8.153c0.445,4.918,3.003,7.635,7.675,8.152c4.522-0.323,7.081-3.041,7.676-8.152
				C264.167,77.009,261.609,74.291,257.012,73.903z"/>
			<path fill="#424142" d="M290.752,82.832v7.182h2.336v0.971h-5.784v-0.971h2.336V74h-2.336V73.03h7.897
				c4.077,0.065,6.19,1.715,6.34,4.95c-0.074,3.171-2.188,4.789-6.34,4.853H290.752z M290.752,74v7.861h4.449
				c3.41-0.063,5.153-1.358,5.228-3.882c-0.149-2.588-1.891-3.914-5.228-3.979H290.752z"/>
			<path fill="#424142" d="M335.947,74h-9.121v6.503h6.896v-1.262h1.112v3.396h-1.112v-1.165h-6.896v8.541h9.121v-1.941h1.112v2.912
				h-13.793v-0.971h2.447V74h-2.447V73.03h13.793v3.009h-1.112V74z"/>
			<path fill="#424142" d="M363.124,90.014h2.225v0.971h-5.562v-0.971h2.225V74h-2.225V73.03h5.562V74h-2.225V90.014z"/>
			<path fill="#424142" d="M388.854,89.238c0.592,0.065,0.926,0.389,1.001,0.971c0,0.519-0.334,0.776-1.001,0.776
				c-0.668,0-1.04-0.258-1.112-0.776C387.814,89.562,388.187,89.238,388.854,89.238z"/>
			<path fill="#424142" d="M426.375,87.103v1.358c-1.335,1.684-3.411,2.523-6.229,2.523c-5.34-0.389-8.231-3.363-8.677-8.929
				c0.445-5.564,3.337-8.604,8.677-9.123c1.927,0,3.671,0.55,5.228,1.649v-1.358h1.001v4.464h-1.001v-1.747
				c-1.557-1.487-3.301-2.198-5.228-2.135c-4.599,0.519-7.119,3.268-7.564,8.25c0.519,5.111,3.077,7.829,7.676,8.152
				C422.705,90.208,424.743,89.174,426.375,87.103z"/>
			<path fill="#424142" d="M460.893,73.126h4.227V74h-1.558v16.984h-0.556l-12.347-15.723v14.752h1.445v0.971h-4.115v-0.971h1.446
				V74h-1.446v-0.874h2.225l12.235,15.432V74h-1.557V73.126z"/>
		</g>
	</g>
	<g>
		<rect x="40.923" y="37.794" fill="#6DB92C" width="48.543" height="19"/>
		<polygon fill="#6DB92C" points="106.966,46.306 91.889,37.794 89.466,37.794 89.466,56.794 91.889,56.794 		"/>
	</g>
</g>
</svg>
