<?xml version="1.0" encoding="utf-8"?>
<!-- Generator: Adobe Illustrator 15.0.0, SVG Export Plug-In . SVG Version: 6.00 Build 0)  -->
<!DOCTYPE svg PUBLIC "-//W3C//DTD SVG 1.1//EN" "http://www.w3.org/Graphics/SVG/1.1/DTD/svg11.dtd">
<svg version="1.1" id="图层_1" xmlns="http://www.w3.org/2000/svg" xmlns:xlink="http://www.w3.org/1999/xlink" x="0px" y="0px"
	 width="40.998px" height="38.014px" viewBox="0 0 40.998 38.014" enable-background="new 0 0 40.998 38.014" xml:space="preserve">
<path fill="#FFFFFF" d="M3.865,36.583C1.731,36.581,0.002,34.891,0,32.807V11.598c0.002-2.086,1.731-3.774,3.865-3.776h17.468
	c2.135,0,3.863,1.689,3.863,3.776v21.208c0,2.084-1.729,3.774-3.863,3.776H3.865z M2.473,11.598v21.208
	c0.003,0.75,0.624,1.358,1.393,1.359h17.468c0.769-0.001,1.392-0.61,1.392-1.359V11.598c0-0.75-0.623-1.359-1.392-1.36H3.865
	C3.097,10.239,2.476,10.848,2.473,11.598"/>
<polygon fill="#FFFFFF" points="20.981,24.514 16.664,20.318 12.686,26.793 14.285,28.355 "/>
<path fill="#FFFFFF" d="M39.803,1.951c-1.298-1.268-3.402-1.268-4.698,0l-1.333,1.303l4.7,4.591l1.331-1.301
	C41.102,5.274,41.102,3.218,39.803,1.951 M37.397,8.92l-4.713-4.605L17.288,19.359l4.699,4.591L37.397,8.92z"/>
<polygon fill="#FFFFFF" points="13.487,28.937 11.962,27.444 9.644,31.183 "/>
<path fill="#FFFFFF" d="M21.223,24.515l-6.942,4.058l-1.838-1.793l4.063-6.555l0.159,0.093l-0.159-0.093l0.124-0.198L21.223,24.515z
	 M16.7,20.609l-3.788,6.115l1.425,1.392l6.287-3.671L16.7,20.609z"/>
</svg>
