<?xml version="1.0" encoding="utf-8"?>
<!-- Generator: Adobe Illustrator 15.0.0, SVG Export Plug-In . SVG Version: 6.00 Build 0)  -->
<!DOCTYPE svg PUBLIC "-//W3C//DTD SVG 1.1//EN" "http://www.w3.org/Graphics/SVG/1.1/DTD/svg11.dtd">
<svg version="1.1" id="图层_1" xmlns="http://www.w3.org/2000/svg" xmlns:xlink="http://www.w3.org/1999/xlink" x="0px" y="0px"
	 width="40.998px" height="38.014px" viewBox="0 0 40.998 38.014" enable-background="new 0 0 40.998 38.014" xml:space="preserve">
<path fill="#FFFFFF" d="M40.9,31.75c-0.681-1.974-2.933-2.257-4.813-3.051c-2.067-0.873-4.358-1.884-6.42-2.731
	c-0.588-0.16-1.178-0.321-1.766-0.481c-0.702-0.483-1.39-2.09-1.766-2.89c-0.374-0.053-0.748-0.108-1.123-0.16
	c0.059-1.237,0.822-1.303,1.123-2.249c0.266-0.833,0.028-1.916,0.447-2.687c0.292-0.536,0.951-0.54,1.279-0.999
	c0.299-0.417,0.496-1.144,0.588-1.654c0.17-0.933,0.318-2.21-0.124-3.135c-0.255-0.532-0.415-0.583-0.486-1.229
	c-0.085-0.782,0.231-3.333,0.243-3.884c0.033-1.431-0.002-1.547-0.348-2.941c0,0-0.421-1.262-1.079-1.643l-1.313-0.227l-0.812-0.752
	c-3.27-2.015-6.775-0.601-8.652,0.16c-2.706,0.878-4.416,3.531-3.223,9.195c0.204,0.966-0.528,1.399-0.481,1.926
	c0.105,1.156,0.127,3.931,1.217,4.615c0.102,0.063,0.875,0.256,0.87,0.204c0.106,1.124,0.214,2.249,0.321,3.372
	c0.271,0.748,0.924,0.829,1.114,1.885l-0.835,0.203c-0.376,0.8-1.064,2.407-1.766,2.89c-0.589,0.16-1.178,0.322-1.766,0.481
	c-2.062,0.848-4.354,1.858-6.419,2.731c-1.882,0.794-4.134,1.077-4.814,3.051c0,1.341-0.126,4.507-0.092,6.264h17.989l1.321-9.028
	l-1.099-2.319l2.535-1.217l2.135,1.192l-1.176,2.387l2.08,8.985h17.2C41.026,36.256,40.9,33.09,40.9,31.75"/>
</svg>
