<?xml version="1.0" encoding="utf-8"?>
<!-- Generator: Adobe Illustrator 15.0.0, SVG Export Plug-In . SVG Version: 6.00 Build 0)  -->
<!DOCTYPE svg PUBLIC "-//W3C//DTD SVG 1.1//EN" "http://www.w3.org/Graphics/SVG/1.1/DTD/svg11.dtd">
<svg version="1.1" id="图层_1" xmlns="http://www.w3.org/2000/svg" xmlns:xlink="http://www.w3.org/1999/xlink" x="0px" y="0px"
	 width="198.074px" height="49.089px" viewBox="0 0 198.074 49.089" enable-background="new 0 0 198.074 49.089"
	 xml:space="preserve">
<g>
	<g>
		<g>
			<rect y="36.13" fill="#FFFFFF" width="49.37" height="12.865"/>
		</g>
		<g>
			<path fill="#FFFFFF" d="M13.152,8.938v23.804H0V5.789L5.28,0h38.81l5.28,5.789v26.955H36.216V8.938h-4.538v23.804H18.062V8.938
				H13.152z"/>
		</g>
	</g>
</g>
<g>
	<path fill="#FFFFFF" d="M58.284,27.279l-2.136,3.845l-2.278-2.421l2.136-4.271V13.753H54.44v-2.99h5.126v13.099l3.987,3.702h21.927
		v3.133H62.129L58.284,27.279z M56.576,1.223l4.983,5.268l-1.851,2.848l-4.983-5.268L56.576,1.223z M71.099,2.504l0.854-1.993
		l3.417,0.712l-0.427,1.281h10.109v9.682H67.54v2.848h17.798v9.54h-21.5V2.504H71.099z M67.54,5.637v3.417h13.953V5.637H67.54z
		 M81.92,18.167H67.54v3.275h14.38V18.167z"/>
	<path fill="#FFFFFF" d="M91.033,12.471l3.132-5.411l2.136,2.706l-3.275,5.411L91.033,12.471z M95.02,22.723l-3.133-1.139
		l2.136-4.841h27.053v8.971l-27.053,5.125l-2.99-1.993l26.483-5.41v-3.56H96.301L95.02,22.723z M91.317,3.074h5.98V1.223h3.56v1.851
		h4.983v3.132h-4.983v8.258h-3.56V6.207h-5.98V3.074z M101.996,21.869l7.831,3.274l-3.702,1.566l-7.688-3.274L101.996,21.869z
		 M106.125,10.62l-2.42,2.421l-1.852-3.702l2.278-2.278L106.125,10.62z M105.698,12.756l2.99-5.553l2.42,2.563l-2.99,5.268
		L105.698,12.756z M112.105,14.465V6.207h-4.557V3.074h4.557V1.223h3.56v1.851h6.407v3.132h-6.407v8.258H112.105z M116.661,9.766
		l2.421-2.706l2.99,5.269l-2.278,2.563L116.661,9.766z"/>
	<path fill="#FFFFFF" d="M142.291,12.471h-3.987v5.695l3.845,3.133l-0.712,3.132l-3.133-2.42v8.686h-3.274V12.471h-7.688V9.339
		h7.688V3.644h3.274v5.695h3.987V12.471z M127.341,28.988l1.993-14.95l2.563,1.993l-1.993,14.95L127.341,28.988z M128.194,4.925
		l-0.712-2.705l14.097-0.427l0.712,2.563L128.194,4.925z M143.715,24.716l14.665-2.278l0.428,2.99l-14.666,2.278L143.715,24.716z
		 M151.403,18.167l-1.709,3.133l-5.41-6.977l1.566-2.99L151.403,18.167z M151.83,7.061l-1.708,2.848l-4.13-5.553l1.709-2.99
		L151.83,7.061z M157.384,1.65v29.046h-3.418V1.65H157.384z"/>
	<path fill="#FFFFFF" d="M163.221,18.736l8.971-2.99l0.712,3.132l-9.112,2.99L163.221,18.736z M163.791,30.697v-3.133h2.563V9.196
		h-2.99V6.064h2.99V1.508h3.417v4.556h2.563v3.132h-2.563v21.5H163.791z M175.039,13.753V10.62h7.974V6.349h-8.828V3.216h8.828
		V1.223h3.56v1.993h8.827v3.132h-8.827v4.271h7.831v6.123l-17.798,13.954l-2.706-1.566l16.944-13.527v-1.851H175.039z
		 M175.751,18.309l2.705-1.851l17.086,12.387l-2.563,1.993L175.751,18.309z"/>
</g>
<g>
	<path fill="#FFFFFF" d="M64.165,49.231h-9.959l6.498-9.605h-6.215V37.86h9.464l-6.427,9.605h6.639V49.231z"/>
	<path fill="#FFFFFF" d="M75.959,49.231h-1.836v-5.227h-5.862v5.227h-1.836V37.86h1.836v4.661h5.862V37.86h1.836V49.231z"/>
	<path fill="#FFFFFF" d="M88.249,49.231h-9.394V37.86h1.836v9.746h5.792V37.86h1.766V49.231z"/>
	<path fill="#FFFFFF" d="M93.192,49.231h-1.907V37.86h1.907V49.231z"/>
	<path fill="#FFFFFF" d="M107.601,49.231h-1.694v-7.628l-4.097,6.568l-4.167-6.568v7.628h-1.695V37.86h1.483l4.379,7.204
		l4.379-7.204h1.412V49.231z"/>
	<path fill="#FFFFFF" d="M119.325,49.231h-8.899V37.86h8.899v1.624h-7.063v3.179h5.438v1.766h-5.438v3.178h7.063V49.231z"/>
	<path fill="#FFFFFF" d="M130.838,49.231h-1.413l-6.215-8.052v8.052h-1.767V37.86h1.343l6.285,8.051V37.86h1.767V49.231z"/>
	<path fill="#FFFFFF" d="M143.692,49.231h-9.959V37.86h9.889v1.624h-8.052v8.122h6.286v-3.178h-4.026v-1.695h5.862V49.231z"/>
	<path fill="#FFFFFF" d="M160.431,39.414h-4.025v9.817h-1.766v-9.817h-4.026V37.86h9.817V39.414z"/>
	<path fill="#FFFFFF" d="M171.59,49.231h-8.899V37.86h8.899v1.624h-7.063v3.179h5.438v1.766h-5.438v3.178h7.063V49.231z"/>
	<path fill="#FFFFFF" d="M182.468,49.231h-8.617V37.86h8.617v1.624h-6.71v8.122h6.71V49.231z"/>
	<path fill="#FFFFFF" d="M194.615,49.231h-1.836v-5.227h-5.862v5.227h-1.837V37.86h1.837v4.661h5.862V37.86h1.836V49.231z"/>
</g>
</svg>
