<?xml version="1.0" encoding="utf-8"?>
<!-- Generator: Adobe Illustrator 15.0.0, SVG Export Plug-In . SVG Version: 6.00 Build 0)  -->
<!DOCTYPE svg PUBLIC "-//W3C//DTD SVG 1.1//EN" "http://www.w3.org/Graphics/SVG/1.1/DTD/svg11.dtd">
<svg version="1.1" id="图层_1" xmlns="http://www.w3.org/2000/svg" xmlns:xlink="http://www.w3.org/1999/xlink" x="0px" y="0px"
	 width="50.634px" height="50.632px" viewBox="360.373 321.757 50.634 50.632"
	 enable-background="new 360.373 321.757 50.634 50.632" xml:space="preserve">
<g>
	<path fill="none" stroke="#000000" stroke-width="2" stroke-linecap="round" stroke-linejoin="round" stroke-miterlimit="10" d="
		M375.224,342.217c1.983,8.161,10.17,13.163,18.286,11.167c2.725-0.668,5.071-2.047,6.94-3.879l9.468,1.69l-5.589-8.014
		c0.811-2.564,0.965-5.377,0.285-8.187c-1.987-8.158-10.167-13.157-18.287-11.164C378.208,325.823,373.243,334.058,375.224,342.217z
		"/>
	<path fill="none" stroke="#000000" stroke-width="2" stroke-linecap="round" stroke-linejoin="round" stroke-miterlimit="10" d="
		M374.703,340.209c-6.351,1.808-11.001,7.672-11.001,14.639c0,2.813,0.774,5.438,2.099,7.699l-3.883,8.842l9.072-3.553
		c2.283,1.397,4.965,2.223,7.841,2.223c8.355,0,15.126-6.81,15.126-15.211c0-0.532-0.027-1.049-0.078-1.561"/>
</g>
</svg>
